<?xml version="1.0" standalone="no"?>
<!DOCTYPE svg PUBLIC "-//W3C//DTD SVG 20010904//EN"
 "http://www.w3.org/TR/2001/REC-SVG-20010904/DTD/svg10.dtd">
<svg version="1.0" xmlns="http://www.w3.org/2000/svg"
 width="700.000000pt" height="700.000000pt" viewBox="0 0 700.000000 700.000000"
 preserveAspectRatio="xMidYMid meet">
<metadata>
Created by potrace 1.11, written by Peter Selinger 2001-2013
</metadata>
<g transform="translate(0.000000,700.000000) scale(0.100000,-0.100000)"
fill="#000000" stroke="none">
<path d="M3098 6995 c-2 -1 -79 -6 -173 -10 -93 -3 -197 -8 -230 -10 -33 -2
-114 -6 -180 -10 -66 -3 -136 -7 -155 -10 -19 -2 -80 -7 -135 -10 -55 -3 -120
-8 -145 -10 -25 -3 -79 -7 -120 -10 -158 -12 -208 -16 -285 -26 -618 -80
-1145 -457 -1415 -1014 -82 -170 -142 -359 -165 -519 -3 -20 -7 -51 -10 -68
-2 -18 -7 -71 -10 -118 -3 -47 -8 -107 -10 -135 -2 -27 -7 -103 -11 -169 l-6
-119 2352 -2352 c2319 -2320 2352 -2352 2388 -2350 21 1 73 5 117 9 160 14
191 17 255 21 135 10 193 17 290 36 95 18 286 75 305 91 5 4 15 8 23 8 42 0
282 134 412 229 424 312 702 829 735 1366 3 55 8 120 10 145 3 25 7 95 11 155
3 61 8 133 9 160 2 28 7 104 10 170 3 66 8 154 10 195 26 478 26 1387 0 1730
-2 25 -6 106 -10 180 -4 74 -8 153 -10 175 -2 22 -6 92 -10 155 -3 63 -8 140
-10 170 -3 30 -7 89 -10 130 -25 353 -126 649 -317 933 -63 94 -82 118 -168
211 -118 127 -197 194 -340 290 -187 125 -480 242 -681 271 -24 3 -55 8 -69
10 -58 8 -133 16 -305 30 -33 2 -89 7 -125 10 -36 3 -99 8 -140 10 -41 3 -109
7 -150 10 -155 12 -208 15 -330 21 -69 3 -159 8 -200 10 -86 6 -997 14 -1002
9z"/>
<path d="M28 4436 c0 -31 -2 -73 -3 -93 -3 -52 -18 -407 -19 -466 l-1 -47
1910 -1911 1910 -1911 100 1 c55 1 134 4 175 6 173 9 346 18 367 18 18 1 20 4
10 16 -17 21 -4410 4413 -4430 4430 -16 12 -17 9 -19 -43z"/>
<path d="M3 3301 l4 -253 1520 -1520 1520 -1520 256 -5 255 -5 -1774 1774
c-976 975 -1777 1775 -1780 1778 -3 2 -3 -109 -1 -249z"/>
<path d="M24 2644 c4 -65 9 -164 12 -219 3 -55 7 -122 10 -150 l5 -50 1087
-1086 1087 -1087 125 -6 c69 -4 157 -9 195 -11 220 -15 207 -15 193 2 -7 9
-622 626 -1367 1371 l-1353 1355 6 -119z"/>
<path d="M74 1830 c3 -58 8 -116 11 -130 3 -14 8 -45 11 -70 37 -278 181 -607
373 -850 69 -86 223 -244 273 -278 12 -9 25 -19 28 -22 8 -10 142 -104 180
-127 167 -100 435 -205 577 -226 17 -3 35 -7 40 -10 4 -3 40 -8 78 -11 39 -4
77 -9 85 -11 8 -2 55 -6 103 -10 l89 -5 -459 459 c-252 252 -669 670 -926 927
l-469 469 6 -105z"/>
</g>
</svg>
